# xmcd
#
# Track frame offsets:
#	150
#	9981
#	29103
#	52220
#	63796
#	75754
#	89206
#	100905
#	130607
#	147666
#	163260
#	177287
#	189551
#
# Disc length: 3077 seconds
#
# Revision: 0
# Processed by: cddbd v1.5.1PL0 Copyright (c) Steve Scherf et al.
# Submitted via: dBpowerAMP V4.0
#
DISCID=b30c030d
DTITLE=D. Rangers - We Stay High and Lonesome
DYEAR=2004
DGENRE=Bluegrass
TTITLE0=Stony Mountain Breakdown
TTITLE1=Runaway
TTITLE2=We Stay High and Lonesome
TTITLE3=Truck Stop Girl
TTITLE4=Boot Heel Drag
TTITLE5=Coughin' Up Blood
TTITLE6=Cherokee Surf
TTITLE7=Three Barriers
TTITLE8=Knives
TTITLE9=Nothin to Show
TTITLE10=Kandahar Saskatchewan
TTITLE11=Kicksville
TTITLE12=Coughin' Up Blood (remix)
EXTD=
EXTT0=
EXTT1=
EXTT2=
EXTT3=
EXTT4=
EXTT5=
EXTT6=
EXTT7=
EXTT8=
EXTT9=
EXTT10=
EXTT11=
EXTT12=
PLAYORDER=
